<?xml version="1.0" standalone="no"?>
<!DOCTYPE svg PUBLIC "-//W3C//DTD SVG 1.1//EN" "http://www.w3.org/Graphics/SVG/1.1/DTD/svg11.dtd">
<svg xmlns="http://www.w3.org/2000/svg" xmlns:xlink="http://www.w3.org/1999/xlink" id="Layer_2" data-name="Layer 2" viewBox="0 0 109.96 114.33" width="109.95999908447266" height="114.33000183105469">
  <defs>
    <style>
      .cls-1 {
        fill: url(#linear-gradient);
      }

      .cls-1, .cls-2 {
        stroke-width: 0px;
      }

      .cls-3, .cls-4 {
        isolation: isolate;
      }

      .cls-4 {
        fill: #3060ad;
        font-family: Sylfaen, Sylfaen;
        font-size: 18.86px;
      }

      .cls-2 {
        fill: url(#linear-gradient-2);
      }
    </style>
    <linearGradient id="linear-gradient" x1="16.49" y1="684.82" x2="88.77" y2="684.82" gradientTransform="translate(0 718.87) scale(1 -1)" gradientUnits="userSpaceOnUse">
      <stop offset="0" stop-color="#8bb9e4"/>
      <stop offset="1" stop-color="#2f51a2"/>
    </linearGradient>
    <linearGradient id="linear-gradient-2" x1="19.2" y1="665.68" x2="84.71" y2="665.68" xlink:href="#linear-gradient"/>
  </defs>
  <g id="Layer_1-2" data-name="Layer 1">
    <g>
      <g>
        <path class="cls-1" d="M20.56.11c.9.34,2.26.68,3.84,1.02s3.05.56,4.29.56h48.57c1.24,0,2.71-.23,4.29-.56,1.58-.34,2.82-.68,3.84-1.02l3.61,18.07-1.36.68c-1.47-2.48-2.71-4.52-3.84-6.21-1.02-1.69-2.03-3.16-2.94-4.29-.79-1.02-1.58-1.81-2.15-2.48-.56-.56-1.13-1.02-1.69-1.36-.56-.34-1.13-.56-1.69-.68-.56,0-1.24-.11-2.15-.11h-15.36v57.26c0,1.13.23,1.92.56,2.6s1.02,1.13,1.69,1.47c.79.34,1.69.56,2.82.68s2.37.23,3.84.34v2.03h-27.45v-2.03c1.24,0,2.48-.11,3.5-.34,1.02-.11,1.92-.34,2.71-.68s1.36-.79,1.81-1.47c.45-.68.68-1.58.68-2.71V3.61h-15.59c-1.02,0-1.81,0-2.37.23-.56.11-1.13.34-1.58.68-.45.34-.79.68-1.24,1.02-.34.45-.79.9-1.24,1.36-.56.68-1.24,1.47-1.92,2.37-.68.9-1.47,2.03-2.26,3.28-.56.9-1.13,1.81-1.81,2.82s-1.47,2.03-2.37,3.28l-1.24-.68L20.44,0l.11.11Z"/>
        <path class="cls-2" d="M19.2,53.65c0-5.53.9-10.62,2.82-15.25s4.52-8.58,7.91-11.97,7.34-5.99,11.97-7.91,9.6-2.82,15.13-2.82,7.91.68,11.41,2.03c3.5,1.36,7.12,3.16,10.96,5.65l3.39-4.52h1.69v24.4h-1.92c-.45-3.39-1.36-6.66-2.71-9.71-1.36-3.05-3.16-5.76-5.31-8.02s-4.74-4.18-7.68-5.53c-2.94-1.36-6.21-2.03-9.83-2.03s-2.6.11-4.18.45-3.28.9-5.08,1.81c-1.81.9-3.61,2.03-5.42,3.61-1.81,1.47-3.61,3.39-5.2,5.87-1.81,2.71-3.28,5.99-4.4,10.05-1.13,4.07-1.69,8.92-1.69,14.57s.9,11.52,2.82,15.93c.79,1.92,1.81,3.84,2.71,5.53,1.02,1.69,2.03,3.28,3.28,4.63,2.26,2.6,4.74,4.52,7.57,5.99,2.82,1.36,5.87,2.03,8.92,2.03s6.89-.56,9.83-1.81c2.94-1.24,5.53-2.94,7.79-5.08,2.15-2.15,4.07-4.74,5.53-7.57,1.47-2.94,2.6-5.99,3.16-9.37h2.03v23.38h-2.26l-2.94-4.97c-3.95,2.71-7.91,4.63-11.86,5.87-3.84,1.24-7.79,1.81-11.63,1.81-5.65,0-10.73-.9-15.25-2.6s-8.36-4.18-11.63-7.34c-3.16-3.16-5.65-7-7.45-11.63-1.69-4.52-2.6-9.71-2.6-15.47h.11Z"/>
      </g>
      <g class="cls-3">
        <text class="cls-4" transform="translate(0 108.77)"><tspan x="0" y="0">Tro Cloud BD</tspan></text>
      </g>
    </g>
  </g>
</svg>